PathFileType	4	(X/Y/Z)	Run_300 01
DataRate	CameraRate	NumFrames	NumMarkers	Units	OrigDataRate	OrigDataStartFrame	OrigNumFrames
100	100	4	42	mm	100	132	128
Frame#	Time	LASI			RASI			LPSI			RPSI			RTH1			RTH2			RTH3			LTH1			LTH2			LTH3			RTB1			RTB2			RTB3			LTB1			LTB2			LTB3			RCAL			RTOE			RMT5			LCAL			LTOE			LACR			RACR			CLAV			C7			RUA1			RUA2			RUA3			RLEL			RMEL			LUA1			LUA2			LUA3			LLEL			LMEL			RFAsuperior			RFAradius			RFAulna			LFAsuperior			LFAradius			LFAulna			LMT5			
		X1	Y1	Z1	X2	Y2	Z2	X3	Y3	Z3	X4	Y4	Z4	X5	Y5	Z5	X6	Y6	Z6	X7	Y7	Z7	X8	Y8	Z8	X9	Y9	Z9	X10	Y10	Z10	X11	Y11	Z11	X12	Y12	Z12	X13	Y13	Z13	X14	Y14	Z14	X15	Y15	Z15	X16	Y16	Z16	X17	Y17	Z17	X18	Y18	Z18	X19	Y19	Z19	X20	Y20	Z20	X21	Y21	Z21	X22	Y22	Z22	X23	Y23	Z23	X24	Y24	Z24	X25	Y25	Z25	X26	Y26	Z26	X27	Y27	Z27	X28	Y28	Z28	X29	Y29	Z29	X30	Y30	Z30	X31	Y31	Z31	X32	Y32	Z32	X33	Y33	Z33	X34	Y34	Z34	X35	Y35	Z35	X36	Y36	Z36	X37	Y37	Z37	X38	Y38	Z38	X39	Y39	Z39	X40	Y40	Z40	X41	Y41	Z41	X42	Y42	Z42	

126	1.68	708.023629	1030.741957	-465.237243	718.558148	1053.629463	-214.548518	537.862294	1122.675396	-373.111922	535.928976	1122.501648	-286.992641	699.31937	931.655615	-149.81213	810.116787	832.92528	-175.079404	786.055347	711.384101	-186.330606	608.38032	919.283911	-514.534446	636.274531	789.57704	-490.500638	510.301407	687.173312	-469.682092	862.507354	476.444854	-239.806038	792.129272	392.265168	-185.740083	794.306012	288.211258	-243.633355	470.526491	455.82109	-401.060125	372.681065	420.378552	-454.679618	354.461002	287.000376	-383.162554	638.800076	186.438583	-259.685039	863.224213	125.190876	-261.041654	828.311371	97.461462	-177.365144	179.06008	244.953687	-340.61324	331.672815	74.635009	-353.176839	719.141701	1576.651235	-489.826641	668.312346	1561.631879	-165.455229	761.250863	1520.807941	-297.578367	635.33803	1597.816092	-353.02678	573.791033	1485.003045	-95.622011	489.808344	1437.271441	-135.640138	498.215945	1395.360981	-67.64804599999999	444.520658	1314.2922	-43.578812	421.999397	1304.849327	-122.044388	708.90416	1474.194833	-590.914816	646.304098	1389.643821	-600.452222	710.023189	1359.83231	-638.295538	728.755547	1274.86284	-667.313276	667.789532	1233.945182	-629.486521	469.078612	1237.224366	-32.169882	609.6660429999999	1089.026468	-68.389302	545.672119	1061.773332	-54.37515	814.801641	1256.80034	-577.0731919999999	866.8642630000001	1305.669128	-438.830999	874.828321	1238.865067	-445.598455	274.846111	67.57356900000001	-424.830865	
127	1.69	710.601489	1036.229874	-465.506338	719.309448	1056.88211	-214.739183	540.070319	1127.227526	-373.950281	537.827036	1127.002126	-287.832737	698.795947	933.280006	-150.322503	807.521974	832.045261	-174.707361	780.230555	710.193624	-186.066519	608.257625	924.015126	-515.212262	634.109502	793.4795329999999	-491.797801	506.987088	693.091954	-470.805553	866.255916	475.59733	-240.987484	805.002575	384.744809	-186.778537	814.297996	282.010036	-245.949052	462.627816	462.111822	-402.388564	364.657933	428.945284	-456.748841	342.167203	296.110609	-385.523217	667.688125	169.254989	-260.797471	895.196074	123.364702	-268.047331	864.243745	90.52628799999999	-184.906714	168.605551	263.892734	-343.413153	308.856344	81.090682	-355.263049	719.311317	1581.452245	-487.142312	668.107997	1564.872407	-165.187923	760.900157	1524.7117	-296.454438	635.455862	1601.772632	-352.200194	572.63172	1489.881864	-95.711314	489.225993	1442.557199	-137.346405	495.587054	1401.750896	-68.430503	440.841979	1320.623958	-44.635976	419.381016	1310.627147	-123.299723	710.099545	1480.692556	-589.5727439999999	647.666086	1396.133078	-600.356598	711.474644	1366.611528	-638.190557	730.521079	1281.302387	-667.127699	669.747144	1240.03112	-630.2884319999999	465.487137	1243.701616	-32.321496	607.172654	1095.485319	-66.76244	543.403316	1068.238976	-51.992492	815.093305	1264.769314	-575.864417	864.563102	1313.873038	-436.584362	873.269695	1247.426835	-442.055	249.501818	76.413274	-424.606243	
128	1.7	712.99347	1040.730047	-465.548631	719.8498049999999	1058.704573	-214.851579	542.200338	1130.950866	-374.670366	539.652979	1130.338614	-288.568652	697.99339	933.457835	-150.872608	805.126804	829.48869	-174.443159	774.755825	707.69337	-185.452295	608.855093	927.93706	-515.496354	633.886586	796.414411	-492.667601	506.45287	696.918245	-472.211253	867.989552	474.150264	-242.093801	815.740621	378.094125	-187.939869	831.9077150000001	277.109618	-248.425819	456.726932	466.700716	-403.763205	358.421235	436.361479	-458.752676	330.263513	304.982386	-387.210136	694.4192399999999	154.41356	-262.011307	923.795523	123.898781	-275.243552	897.508023	85.783362	-193.592077	157.621001	282.47772	-345.773203	285.641673	89.86465699999999	-355.346669	719.012906	1585.062679	-485.167332	667.936641	1566.839138	-164.652735	760.683959	1527.403309	-295.496319	635.445343	1604.502051	-351.18684	571.5727910000001	1493.449307	-95.324388	488.430189	1445.789049	-139.105718	493.098393	1406.466511	-69.18290500000001	437.779548	1325.197941	-45.413672	417.402041	1314.443715	-124.214092	710.327501	1485.88524	-588.501083	648.316862	1401.078489	-600.362442	712.18162	1372.038116	-638.292014	731.603579	1286.586641	-667.345715	670.860295	1245.018777	-631.472435	462.642582	1248.443048	-32.225931	605.565589	1100.372418	-64.522361	541.828048	1072.94342	-49.635859	814.876585	1270.792501	-575.35015	861.855548	1319.256787	-434.684962	871.540262	1253.023406	-439.957712	225.134397	87.343288	-423.605095	
129	1.71	715.027568	1044.003004	-465.045512	720.236675	1059.209892	-214.815347	544.083849	1133.623603	-374.9678	541.075623	1132.567859	-288.807979	697.231057	932.712328	-151.187157	802.57455	825.656756	-174.232917	769.287663	704.0863450000001	-184.645838	610.347434	930.678092	-515.314657	635.693749	798.178438	-492.787021	508.522781	698.511465	-473.699977	868.016416	472.25664	-242.974109	823.27942	372.57722	-189.118827	846.583396	273.430912	-250.595043	452.64909	469.438365	-405.196228	353.697983	442.737802	-460.632698	318.738623	313.729704	-388.164593	717.779977	142.226006	-264.001986	948.065098	126.073176	-280.953212	925.9610290000001	83.43138999999999	-201.221506	145.713052	300.655464	-348.189491	262.7283	100.896008	-353.132417	718.351956	1587.496337	-483.842723	667.736139	1567.589053	-163.864656	760.474182	1529.020861	-294.653562	635.328563	1606.012057	-350.003615	570.677541	1495.814765	-94.32042199999999	487.512012	1447.05355	-140.684701	491.00363	1409.2463	-69.92761400000001	435.489004	1327.863802	-45.8498	416.29165	1316.161901	-124.81776	709.701559	1489.524726	-587.674545	648.182482	1404.426224	-600.326854	712.11947	1375.98245	-638.515886	731.924652	1290.554054	-667.828035	670.952188	1248.732727	-632.851739	460.675854	1251.29241	-31.869429	604.837049	1103.503331	-61.787738	540.9670609999999	1075.752405	-47.415785	814.140049	1274.499263	-575.3534529999999	859.069763	1321.437083	-433.246343	869.890149	1255.260083	-439.926435	202.689714	100.141297	-421.851161	
